<?xml version="1.0" encoding="iso-8859-1"?>
<!-- Generator: Adobe Illustrator 19.2.0, SVG Export Plug-In . SVG Version: 6.00 Build 0)  -->
<svg version="1.1" id="Layer_1" xmlns="http://www.w3.org/2000/svg" xmlns:xlink="http://www.w3.org/1999/xlink" x="0px" y="0px"
	 viewBox="0 0 40 40" style="enable-background:new 0 0 40 40;" xml:space="preserve">
<g>
	<path style="fill:#A59DD1;" d="M27.208,10.858c-0.885-0.839-1.507-1.389-2.072-1.389c-0.014,0-0.026,0-0.039,0.001
		C24.579,9.175,23.062,8.5,20,8.5c-3.062,0-4.579,0.675-5.097,0.97c-0.013,0-0.025-0.001-0.039-0.001
		c-0.566,0-1.188,0.55-2.072,1.389c-0.097,0.092-0.21,0.199-0.322,0.303c0.407-2.056,1.798-6.368,2.572-8.637
		c0,0.001,0,0.001,0.001,0.001c0.015,0,0.252-0.289,1.05-0.555C17.031,1.659,18.346,1.5,20,1.5s2.969,0.159,3.907,0.472
		c0.873,0.292,1.075,0.61,1.077,0.613c0.752,2.217,2.148,6.55,2.55,8.581C27.42,11.06,27.306,10.951,27.208,10.858z"/>
	<path style="fill:#8B75A1;" d="M20,2c1.994,0,3.139,0.243,3.749,0.446c0.478,0.16,0.702,0.317,0.786,0.389
		c0.686,2.018,1.587,4.833,2.131,6.858c-0.522-0.433-0.964-0.69-1.436-0.72C24.556,8.615,22.965,8,20,8
		c-2.965,0-4.556,0.615-5.23,0.972c-0.472,0.03-0.914,0.287-1.436,0.72c0.544-2.024,1.445-4.84,2.131-6.857
		c0.084-0.072,0.308-0.229,0.786-0.389C16.861,2.243,18.006,2,20,2 M20,1c-1.988,0-3.259,0.228-4.066,0.498
		c-1.161,0.387-1.363,0.859-1.363,0.859s-2.592,7.591-2.712,9.5c-0.012,0.183,0.035,0.26,0.124,0.26
		c0.471,0,2.146-2.147,2.882-2.147c0.05,0,0.095,0.01,0.135,0.031c0,0,1.289-1,5-1c3.711,0,5,1,5,1
		c0.04-0.021,0.086-0.031,0.135-0.031c0.736,0,2.41,2.147,2.882,2.147c0.089,0,0.135-0.077,0.124-0.26
		c-0.12-1.909-2.712-9.5-2.712-9.5s-0.202-0.472-1.363-0.859C23.259,1.228,21.988,1,20,1L20,1z"/>
</g>
<g>
	<path style="fill:#DCD5F2;" d="M28.078,38.284c-2.191-2.835-14.985-19.398-15.98-20.974c-1.127-1.784-2.072-4.329-1.345-6.122
		c0.442-1.087,2.978-6.387,4.18-8.459c0,0,0.473-0.287,0.567-0.345l-0.001,2.896c-0.009,1.409-0.025,4.341,1.086,5.998
		c1.414,2.172,14.552,19.731,16.73,22.642L28.078,38.284z"/>
	<path style="fill:#8B75A1;" d="M15,3.634V5l-0.001,0.278c-0.008,1.459-0.026,4.494,1.163,6.268
		c1.374,2.11,13.621,18.489,16.469,22.294l-4.474,3.728c-5.395-6.978-14.813-19.221-15.636-20.525
		c-1.012-1.602-1.961-4.047-1.304-5.666C11.602,10.426,13.733,5.965,15,3.634 M16,1.507c-0.209,0.107-1.214,0.73-1.435,0.86
		C13.361,4.408,10.716,9.951,10.29,11c-0.831,2.047,0.277,4.824,1.385,6.577C12.783,19.332,28,39,28,39l6-5c0,0-15.477-20.662-17-23
		c-1.105-1.648-1-4.832-1-6C16,3.791,16,1.507,16,1.507L16,1.507z M14.571,2.357c-0.036,0.024-0.051,0.034-0.049,0.034
		c0.002,0,0.017-0.008,0.043-0.024C14.567,2.364,14.569,2.361,14.571,2.357L14.571,2.357z"/>
</g>
<g>
	<path style="fill:#DCD5F2;" d="M6.685,33.92c2.179-2.91,15.316-20.469,16.734-22.647c1.107-1.651,1.091-4.583,1.082-5.992
		L24.5,2.384c0.095,0.058,0.567,0.345,0.567,0.345c1.202,2.072,3.737,7.372,4.18,8.459c0.728,1.793-0.218,4.338-1.345,6.122
		c-0.995,1.576-13.789,18.139-15.98,20.974L6.685,33.92z"/>
	<path style="fill:#8B75A1;" d="M25,3.634c1.267,2.331,3.398,6.793,3.783,7.742c0.657,1.62-0.292,4.065-1.304,5.667
		c-0.823,1.304-10.241,13.546-15.636,20.525l-4.474-3.728c2.848-3.805,15.094-20.183,16.461-22.283
		c1.197-1.785,1.179-4.82,1.171-6.279L25,5V3.634 M24,1.507c0,0,0,2.284,0,3.493c0,1.168,0.105,4.352-1,6C21.477,13.338,6,34,6,34
		l6,5c0,0,15.217-19.668,16.325-21.423c1.108-1.753,2.216-4.53,1.385-6.577c-0.426-1.049-3.071-6.592-4.275-8.632
		C25.214,2.238,24.209,1.615,24,1.507L24,1.507z M25.429,2.357c0.002,0.003,0.004,0.007,0.006,0.01
		c0.026,0.015,0.041,0.024,0.043,0.024C25.479,2.391,25.464,2.381,25.429,2.357L25.429,2.357z"/>
</g>
</svg>
